if (_typeface_js && _typeface_js.loadFace) _typeface_js.loadFace({"glyphs":{"0":{"ha":849,"x_min":25,"x_max":897,"o":"m 513 668 q 714 643 646 668 q 851 524 801 611 q 897 346 897 444 q 844 163 897 251 q 706 36 790 74 q 479 -1 622 -1 q 138 51 215 -1 q 25 289 25 128 q 74 504 25 415 q 240 640 129 606 q 513 668 329 668 m 450 628 q 301 556 375 626 q 200 326 200 457 q 267 133 200 215 q 447 46 339 46 q 633 126 556 46 q 711 315 711 207 q 656 501 711 410 q 568 590 622 556 q 450 628 510 628 z "},"1":{"ha":715,"x_min":160,"x_max":767,"o":"m 224 661 l 233 661 q 353 664 293 661 l 604 675 q 557 131 557 392 q 558 88 557 110 l 572 88 q 601 89 578 88 q 645 90 625 90 q 732 92 665 90 q 767 93 749 92 l 726 0 l 160 0 l 218 93 q 311 89 242 92 l 369 88 q 399 385 399 229 q 382 579 399 486 l 339 579 q 175 568 288 579 l 224 661 z "},"2":{"ha":779,"x_min":93,"x_max":833,"o":"m 489 75 q 833 115 631 78 l 774 0 l 93 0 l 114 38 q 546 310 369 111 q 389 279 433 279 q 256 337 314 279 q 197 469 197 394 q 286 625 197 572 q 469 668 358 668 q 651 661 611 668 q 765 602 722 649 q 807 485 807 556 q 694 250 807 372 q 489 75 625 174 m 519 626 q 408 577 450 628 q 365 454 365 526 q 471 335 365 335 q 592 385 540 335 q 643 504 643 435 q 608 592 643 557 q 519 626 572 626 z "},"3":{"ha":757,"x_min":114,"x_max":811,"o":"m 811 651 l 733 585 q 604 472 633 499 q 486 349 533 408 q 738 165 738 322 q 697 58 738 114 q 614 -22 663 10 q 397 -78 531 -78 q 114 -53 215 -78 l 139 63 q 367 -32 293 -32 q 475 4 426 -32 q 539 129 539 53 q 475 244 539 203 q 343 281 421 281 q 156 233 288 281 l 139 263 q 507 597 372 422 l 481 597 q 156 571 389 597 l 218 668 q 226 669 225 669 l 592 667 q 811 651 699 665 z "},"4":{"ha":824,"x_min":44,"x_max":882,"o":"m 690 685 l 690 632 q 679 219 690 476 q 676 119 678 188 q 779 124 711 119 q 882 129 847 129 l 857 24 l 674 24 l 675 13 l 664 -203 l 482 -197 q 501 24 501 -19 q 44 15 272 17 l 521 676 q 690 685 561 682 m 510 526 q 239 132 332 307 q 451 113 313 113 q 510 114 475 113 q 513 429 513 215 q 510 526 513 493 z "},"5":{"ha":799,"x_min":71,"x_max":856,"o":"m 665 667 q 707 604 683 642 l 832 403 q 856 364 840 389 l 760 367 l 685 365 q 560 560 643 431 q 374 350 501 496 l 403 346 q 489 325 446 340 q 617 149 617 282 q 472 -39 617 24 q 257 -79 379 -79 q 81 -62 156 -79 l 71 63 q 163 4 136 18 q 264 -22 214 -22 q 368 15 322 -22 q 442 157 442 75 q 388 269 442 229 q 261 310 335 310 q 158 283 210 310 l 143 293 l 449 667 l 665 667 z "},"6":{"ha":786,"x_min":81,"x_max":842,"o":"m 842 803 q 303 500 432 692 q 243 326 243 411 q 309 152 243 225 q 476 79 375 79 q 638 179 583 79 q 665 283 665 231 q 576 454 665 390 q 444 496 518 496 q 325 465 403 496 l 338 503 q 597 586 464 586 q 778 504 711 586 q 829 353 829 440 q 769 192 829 269 q 636 79 717 122 q 351 -18 456 -18 q 143 93 228 -18 q 81 296 81 175 q 310 685 81 508 q 606 881 404 757 q 842 803 743 849 z "},"7":{"ha":739,"x_min":133,"x_max":792,"o":"m 792 667 q 531 283 685 526 q 388 4 419 108 q 272 0 340 0 l 133 0 q 314 229 253 142 q 515 563 458 438 q 369 569 415 569 q 133 553 293 569 q 199 667 153 592 l 215 665 l 310 663 q 451 657 379 661 q 529 654 508 654 q 792 667 632 654 z "},"8":{"ha":756,"x_min":113,"x_max":810,"o":"m 611 369 q 746 208 746 311 q 619 31 746 82 q 444 0 544 0 l 400 0 q 147 78 201 0 q 122 160 122 114 q 206 297 122 251 q 271 328 229 310 l 251 338 q 189 372 210 358 q 113 518 113 424 q 174 677 113 597 q 372 774 236 757 q 571 788 489 788 q 738 742 674 788 q 810 590 810 690 q 758 453 810 517 q 692 400 732 419 q 611 369 690 399 m 474 735 q 345 678 403 736 q 288 549 288 621 q 339 440 288 481 q 457 403 386 403 q 586 438 536 403 q 644 553 644 478 q 596 680 644 626 q 474 735 547 733 m 417 306 q 320 269 360 306 q 281 175 281 232 q 319 84 281 119 q 415 49 358 49 q 516 85 471 49 q 561 175 561 121 q 519 269 561 233 q 417 306 476 306 z "},"9":{"ha":786,"x_min":85,"x_max":842,"o":"m 342 -239 l 89 -179 q 167 -150 103 -174 q 407 -37 313 -96 q 661 324 661 118 q 587 505 661 432 q 403 578 513 578 q 282 517 326 578 q 242 383 242 463 q 325 214 242 285 q 443 164 385 164 q 578 218 490 164 l 611 207 q 495 98 569 138 q 338 58 421 58 q 110 192 172 58 q 85 301 85 244 q 376 642 85 496 q 542 690 474 690 q 665 658 603 690 q 767 578 726 626 q 842 363 842 485 q 742 101 842 242 q 342 -239 601 -94 z "}," ":{"ha":694,"x_min":0,"x_max":0,"o":""},"!":{"ha":293,"x_min":28,"x_max":314,"o":"m 210 1028 l 210 972 q 206 594 210 797 l 197 189 q 142 185 174 185 q 53 189 101 185 l 54 221 l 56 446 q 28 1015 57 693 l 210 1028 m 314 39 q 100 -10 226 -8 l 47 75 q 161 100 74 81 q 243 122 169 101 l 314 39 z "},"\"":{"ha":383,"x_min":74,"x_max":411,"o":"m 88 915 l 197 942 l 197 489 q 74 475 147 482 l 74 481 l 76 504 q 89 760 89 610 q 88 915 89 813 m 301 915 l 411 942 l 411 489 q 289 475 364 482 l 289 481 q 290 504 289 493 q 304 760 304 622 q 301 915 304 813 z "},"#":{"ha":792,"x_min":86,"x_max":849,"o":"m 410 529 l 581 529 l 629 776 l 753 799 l 750 789 l 690 531 l 849 539 l 790 433 l 667 433 l 638 308 l 801 317 l 743 211 l 615 211 q 567 -22 593 117 l 444 -51 q 506 183 483 72 l 511 211 l 438 208 l 335 208 l 322 150 q 288 -22 318 131 l 165 -51 q 225 182 188 44 l 232 207 l 86 204 l 136 307 l 254 307 l 282 429 l 133 428 l 183 529 l 301 529 l 349 776 l 472 799 l 471 789 l 410 529 m 386 431 l 357 307 l 533 307 l 561 433 q 435 431 468 431 l 386 431 z "},"$":{"ha":768,"x_min":128,"x_max":822,"o":"m 561 765 l 560 710 q 558 688 560 703 q 557 667 557 674 q 611 671 588 671 q 792 606 742 671 q 822 507 817 574 q 628 493 710 508 q 632 531 632 517 q 556 626 632 603 q 550 528 554 597 q 542 403 542 399 l 542 393 q 608 396 581 396 q 818 232 818 396 q 760 72 818 135 q 606 -1 703 10 q 529 -6 582 -4 l 529 -39 l 396 -125 l 400 -106 q 419 -6 408 -67 l 397 -4 l 301 -7 q 175 36 222 -10 q 128 161 128 82 l 128 185 l 172 185 q 317 196 249 185 q 314 164 314 174 q 419 29 314 44 q 431 313 431 117 l 372 313 q 144 450 144 313 q 196 578 144 521 q 314 651 243 631 q 419 667 361 665 l 419 700 l 561 765 m 424 618 q 318 492 318 569 q 431 397 318 417 q 431 428 431 396 q 429 507 429 465 q 424 618 429 556 m 538 310 q 529 46 528 176 q 650 201 650 101 q 538 310 650 294 z "},"%":{"ha":983,"x_min":44,"x_max":1054,"o":"m 303 668 q 488 588 444 668 q 508 506 508 549 q 470 401 508 447 q 375 340 432 354 q 286 332 342 332 q 106 358 147 332 q 44 478 44 397 q 138 647 44 604 q 303 668 183 668 m 269 639 q 194 606 232 639 q 142 496 142 558 q 178 403 142 443 q 268 364 215 364 q 365 400 324 364 q 406 492 406 436 q 329 622 406 581 q 269 639 299 639 m 849 336 q 956 324 919 336 q 1054 174 1054 289 q 1017 67 1054 115 q 922 6 979 18 q 832 -1 892 -1 q 651 25 693 -1 q 592 144 592 64 q 685 315 592 271 q 849 336 729 336 m 817 307 q 740 272 778 306 q 688 164 688 225 q 724 70 688 110 q 815 31 761 31 q 910 67 869 31 q 951 158 951 104 q 875 290 951 247 q 817 307 844 307 m 897 728 q 386 0 511 211 q 228 -53 268 -33 l 547 414 q 708 669 625 528 l 897 728 z "},"&":{"ha":1913,"x_min":19,"x_max":1994,"o":"m 215 564 l 215 518 q 432 307 247 389 q 935 197 678 197 l 1083 197 q 1803 518 1719 257 l 1803 564 q 1586 775 1772 692 q 1083 883 1343 883 l 935 883 q 215 564 299 825 m 896 903 q 1033 904 940 904 q 1310 888 1197 904 l 1413 872 l 1615 828 q 1994 568 1965 751 l 1994 518 q 1960 444 1981 467 q 1758 307 1876 354 q 1122 183 1475 194 q 989 181 1035 181 q 704 199 838 181 l 601 213 l 399 257 q 169 340 268 286 q 19 518 36 414 l 19 568 q 54 642 33 618 q 256 779 135 732 q 896 903 542 892 m 425 621 l 425 485 l 536 485 l 536 621 l 575 621 l 575 493 q 533 453 575 453 l 428 453 q 386 493 386 453 l 386 621 l 425 621 m 726 590 l 726 453 l 688 453 l 688 590 l 610 590 l 610 621 l 804 621 l 804 590 l 726 590 m 853 581 q 894 621 853 621 l 1018 621 q 1058 581 1058 621 l 1058 493 q 1018 453 1058 453 l 894 453 q 853 493 853 453 l 853 581 m 892 485 l 1019 485 l 1019 590 l 892 590 l 892 485 m 1257 592 l 1169 592 l 1169 547 l 1257 547 q 1275 561 1275 547 l 1275 579 q 1257 592 1275 592 m 1131 453 l 1131 621 l 1275 621 q 1313 588 1313 621 l 1313 551 q 1275 518 1313 518 l 1169 518 l 1169 453 l 1131 453 m 1368 453 l 1368 621 l 1407 621 l 1407 453 l 1368 453 m 1521 519 l 1594 519 l 1558 588 l 1521 519 m 1446 453 l 1542 621 l 1579 621 l 1675 453 l 1631 453 l 1611 490 l 1504 490 l 1485 453 l 1446 453 z "},"'":{"ha":185,"x_min":74,"x_max":197,"o":"m 88 915 l 197 942 l 197 489 q 74 475 147 482 l 74 481 l 76 504 q 89 760 89 610 q 88 915 89 813 z "},"(":{"ha":249,"x_min":28,"x_max":267,"o":"m 267 932 q 175 333 175 644 q 263 -300 175 -126 q 28 332 28 -281 q 60 683 28 538 q 247 932 114 932 l 267 932 z "},")":{"ha":232,"x_min":10,"x_max":249,"o":"m 10 -300 q 101 304 101 -10 q 14 942 101 767 q 249 304 249 921 q 217 -49 249 99 q 29 -300 163 -300 l 10 -300 z "},"*":{"ha":425,"x_min":14,"x_max":456,"o":"m 224 725 q 14 740 154 736 q 50 854 51 797 q 228 738 118 801 q 178 942 211 821 q 240 932 213 932 q 296 942 267 932 q 240 738 267 860 q 419 847 317 779 q 456 735 421 779 l 406 735 q 244 725 350 735 q 404 589 303 669 q 308 519 340 565 q 233 717 285 603 q 154 522 201 654 q 58 593 113 576 q 224 725 129 640 z "},"+":{"ha":767,"x_min":106,"x_max":821,"o":"m 513 399 l 544 399 q 821 408 657 399 l 763 303 l 510 303 q 507 138 507 190 q 510 -1 507 94 l 396 -56 q 407 278 407 63 l 407 301 l 106 297 l 156 400 l 408 399 q 410 469 410 453 q 408 583 410 544 l 404 699 l 521 747 l 521 738 l 513 399 z "},",":{"ha":328,"x_min":-107,"x_max":351,"o":"m 215 232 l 351 224 l 31 -160 q -107 -133 -46 -153 q 60 44 -97 -122 q 215 232 160 150 z "},"-":{"ha":432,"x_min":0,"x_max":463,"o":"m 14 417 l 293 417 q 463 426 372 417 l 440 350 l 85 347 q 0 344 38 347 l 14 417 z "},".":{"ha":335,"x_min":79,"x_max":358,"o":"m 181 161 l 358 63 l 239 -10 l 79 101 l 181 161 z "},"/":{"ha":593,"x_min":-22,"x_max":636,"o":"m 636 942 q 129 -231 289 200 q -22 -300 88 -246 q 458 861 347 553 l 636 942 z "},":":{"ha":335,"x_min":79,"x_max":358,"o":"m 181 161 l 358 63 l 239 -10 l 79 101 l 181 161 m 181 500 l 358 401 l 239 329 l 79 440 l 181 500 z "},";":{"ha":335,"x_min":-107,"x_max":358,"o":"m 181 500 l 358 401 l 239 329 l 79 440 l 181 500 m 215 232 l 351 224 l 31 -160 q -107 -133 -46 -153 q 60 44 -97 -122 q 215 232 160 150 z "},"<":{"ha":594,"x_min":57,"x_max":638,"o":"m 638 865 l 638 796 l 244 544 l 638 279 l 638 94 l 57 488 l 57 497 l 638 865 z "},"=":{"ha":774,"x_min":96,"x_max":829,"o":"m 115 400 l 165 501 l 503 501 q 829 511 654 501 l 771 406 l 550 406 q 465 404 546 406 q 313 403 458 403 q 115 400 303 401 m 96 196 l 146 299 l 188 299 l 485 297 q 811 308 617 297 l 753 203 l 531 203 q 447 200 518 203 q 293 199 400 200 q 96 196 247 199 z "},">":{"ha":594,"x_min":57,"x_max":638,"o":"m 57 94 l 57 165 l 450 417 l 57 681 l 57 865 l 638 474 l 638 463 l 57 94 z "},"?":{"ha":479,"x_min":32,"x_max":514,"o":"m 32 892 q 171 981 92 943 q 328 1024 261 1024 q 428 990 386 1024 q 471 900 471 957 q 432 790 471 850 q 357 699 414 764 q 250 500 250 578 q 286 424 250 451 q 368 399 318 399 q 514 438 436 399 l 514 390 q 381 300 456 335 q 225 261 299 261 q 117 292 161 261 q 67 388 67 326 q 150 551 67 440 q 263 719 247 682 q 279 782 279 756 q 174 883 279 883 q 58 846 138 883 l 32 892 m 218 171 q 489 129 363 142 l 313 -3 q 181 32 300 -1 q 54 72 85 58 l 218 171 z "},"@":{"ha":1068,"x_min":32,"x_max":1142,"o":"m 901 135 l 997 76 q 719 -10 838 -10 q 661 -8 700 -10 q 603 -7 622 -7 q 513 -10 572 -7 q 424 -14 454 -14 q 147 124 267 -14 q 32 415 32 256 q 163 738 32 569 q 529 940 321 940 l 568 940 l 625 938 l 710 940 q 1079 742 946 949 q 1142 543 1142 644 q 1035 289 1142 396 q 919 226 981 235 q 876 224 910 225 q 863 222 871 222 l 851 222 l 846 221 q 757 256 800 221 q 722 318 724 282 q 646 275 682 286 q 557 263 619 267 l 467 256 q 354 307 396 250 q 318 431 318 357 q 381 597 318 525 q 539 669 444 669 q 598 666 560 669 q 653 663 636 663 q 744 646 682 661 q 764 643 756 643 q 851 672 788 643 q 847 636 850 660 q 831 393 831 515 q 889 264 831 264 q 989 374 950 264 q 1019 535 1019 460 q 892 803 1019 682 q 619 910 778 910 q 297 767 431 910 q 164 433 164 624 q 265 165 164 286 q 572 29 381 29 q 901 135 774 29 m 725 535 q 688 599 704 583 q 607 631 654 631 q 511 589 560 631 q 432 428 432 521 q 464 338 432 379 q 544 292 497 292 q 632 339 585 292 q 693 422 669 376 q 728 521 728 490 q 725 535 728 528 z "},"A":{"ha":1013,"x_min":13,"x_max":1085,"o":"m 503 128 q 650 197 590 128 q 714 351 704 260 q 718 419 718 390 q 393 731 718 733 q 247 611 299 729 q 208 411 208 521 q 313 192 208 269 q 503 128 399 128 m 803 -1 q 785 126 794 32 q 774 229 782 146 q 572 64 692 128 q 321 -6 443 -6 q 88 108 171 -6 q 13 364 13 210 q 126 650 13 535 q 396 815 211 736 q 525 840 454 840 q 771 729 681 840 q 799 801 782 769 q 833 797 814 797 q 1039 849 917 797 q 956 518 956 783 q 959 385 956 474 q 963 251 963 296 q 979 108 963 156 q 1085 3 1007 29 l 803 -1 z "},"B":{"ha":846,"x_min":-11,"x_max":907,"o":"m -11 893 l 572 892 q 735 853 660 892 q 826 726 826 806 q 757 600 826 650 q 621 533 721 574 l 675 522 q 829 458 768 503 q 907 318 907 401 q 815 136 907 213 q 625 42 742 75 q 353 7 501 7 l 251 7 q 183 24 192 7 q 179 60 179 32 l 175 747 q 131 856 175 828 q -11 893 101 874 m 358 526 l 467 524 q 597 551 533 522 q 672 649 672 586 q 594 765 672 724 q 450 799 532 799 l 358 799 l 358 526 m 407 460 l 358 460 l 358 125 q 374 86 358 94 q 417 81 383 81 l 539 81 q 676 121 613 81 q 750 235 750 165 q 631 413 750 351 q 407 460 538 460 z "},"C":{"ha":982,"x_min":6,"x_max":1053,"o":"m 801 875 q 697 626 768 792 q 603 772 678 706 q 450 838 529 838 q 275 707 338 838 q 226 479 226 606 q 243 372 226 417 q 299 279 258 335 q 722 81 444 81 q 1053 149 885 81 q 550 6 808 6 q 183 106 336 6 q 6 425 6 222 q 26 561 6 486 q 549 897 119 897 q 801 875 657 897 z "},"D":{"ha":907,"x_min":-193,"x_max":972,"o":"m 165 943 l 700 858 q 972 582 972 815 l 972 561 q 956 347 972 414 q 833 179 926 232 l 582 36 q 439 -1 517 -1 q 139 139 267 -1 q 15 449 15 275 q 125 703 15 625 l 267 803 q 8 851 156 847 q -193 854 -24 853 q -26 922 -193 890 q 165 943 121 950 m 300 797 l 271 774 q 203 654 226 738 q 183 514 183 586 q 210 358 183 435 q 421 154 256 226 q 586 115 510 115 q 732 164 674 115 q 761 219 743 174 q 807 467 807 336 q 751 660 807 593 q 569 749 694 726 l 300 797 z "},"E":{"ha":900,"x_min":113,"x_max":964,"o":"m 964 867 q 847 671 903 788 q 768 783 821 740 q 640 832 710 832 q 374 604 476 832 q 571 524 413 549 q 793 507 685 506 q 583 467 749 503 q 371 439 457 439 q 326 440 349 439 q 454 194 328 292 q 725 104 572 104 q 932 171 847 104 q 515 6 732 6 q 163 165 310 6 q 113 415 113 299 q 313 782 113 653 q 735 893 483 893 q 964 867 851 893 z "},"F":{"ha":825,"x_min":-28,"x_max":883,"o":"m 865 686 q 778 785 861 751 q 638 810 715 810 q 607 807 614 810 q 604 806 606 807 q 665 801 604 801 l 349 801 l 349 481 l 640 469 q 856 482 700 467 q 617 386 761 404 q 354 379 561 379 l 354 -32 q 297 -151 354 -100 l 249 -186 q 185 -233 215 -210 l -17 -389 l -28 -372 q 99 -243 74 -281 q 144 -72 144 -175 l 143 788 l -4 883 l 883 888 q 863 829 863 875 q 868 771 863 810 q 874 713 874 732 q 865 686 874 690 z "},"G":{"ha":900,"x_min":6,"x_max":964,"o":"m 765 43 q 751 -104 765 -21 q 717 -232 735 -157 q 738 -218 722 -232 q 811 -136 756 -196 l 818 -129 q 888 -53 826 -121 q 922 56 915 -12 l 964 486 l 804 486 q 564 399 713 486 l 711 406 q 753 404 726 407 q 796 403 785 403 l 776 121 q 639 106 704 106 q 299 279 426 106 q 243 372 258 335 q 226 479 226 417 q 275 707 226 606 q 450 838 338 836 q 831 625 775 842 q 957 861 878 701 q 549 897 740 897 q 26 561 119 897 q 6 425 6 486 q 150 124 6 243 q 471 13 285 13 q 765 88 617 13 l 765 43 z "},"H":{"ha":814,"x_min":14,"x_max":872,"o":"m 71 1067 q 189 1104 96 1071 q 306 1131 263 1131 q 344 1125 326 1131 l 308 931 q 289 735 289 826 q 297 635 289 681 q 635 817 489 817 q 824 686 760 817 q 872 446 872 586 q 760 15 872 213 q 429 -271 638 -199 q 596 -60 522 -185 q 689 190 676 76 q 696 307 696 254 q 663 518 696 429 q 510 644 615 644 q 364 576 433 644 q 274 438 303 517 q 249 292 249 369 q 346 3 249 143 l 278 3 q 222 3 222 3 l 146 1 l 14 1 q 93 322 71 118 q 115 657 96 350 q 125 774 118 697 q 131 840 131 844 q 129 864 131 849 q 128 888 128 879 l 128 928 q 71 1067 128 1026 z "},"I":{"ha":396,"x_min":14,"x_max":424,"o":"m 424 828 l 17 828 l 17 4 l 238 -92 l 236 667 q 235 686 235 676 q 308 786 235 747 q 424 828 329 797 m 142 1151 q 179 1126 151 1151 l 238 1075 q 289 1024 289 1029 q 261 986 289 1017 q 158 885 215 936 q 133 901 143 893 l 50 981 q 14 1015 40 990 q 47 1053 15 1018 l 118 1129 q 142 1151 139 1151 z "},"J":{"ha":442,"x_min":-11,"x_max":474,"o":"m 474 1026 q 446 994 474 1022 q 338 896 393 942 q 273 964 322 907 q 219 1035 224 1021 q 292 1114 222 1053 q 354 1163 347 1163 q 449 1064 360 1163 q 474 1026 474 1036 m 31 851 l 471 850 l 471 88 q 344 -12 428 50 q 217 -110 253 -79 q 39 -251 158 -158 q -11 -268 11 -268 l 1 -251 q 22 -233 6 -247 l 51 -207 q 153 -106 113 -151 q 256 207 256 11 q 247 747 256 211 l 31 851 m 31 851 q 247 747 233 818 l 31 851 z "},"K":{"ha":1099,"x_min":-58,"x_max":1178,"o":"m 319 882 l 319 544 q 418 597 353 560 q 481 650 436 611 q 642 819 553 731 q 861 903 715 893 q 469 589 714 750 l 790 267 q 1026 117 940 117 q 1097 128 1050 117 q 1167 139 1143 139 q 1178 138 1174 139 q 1124 100 1176 131 q 897 17 983 19 q 892 19 896 18 q 747 88 821 26 q 631 203 726 108 l 367 465 q 333 490 342 490 q 326 464 326 490 l 326 76 l 135 6 l 118 764 q 76 839 117 817 q -58 881 51 853 l 319 882 z "},"L":{"ha":371,"x_min":-97,"x_max":1018,"o":"m 242 896 l 181 -94 l 639 -153 q 728 -158 682 -158 q 1018 -114 936 -158 l 956 -156 q 685 -257 833 -257 q 549 -250 642 -257 l -10 -208 l 49 746 q 53 779 53 765 q 11 849 53 825 q -97 894 3 853 l 242 896 z "},"M":{"ha":1494,"x_min":-8,"x_max":1568,"o":"m -8 424 q 225 -29 -4 214 q 496 -261 364 -178 q 315 13 407 -160 q 206 314 213 206 q 201 503 196 472 q 272 653 217 582 q 424 739 340 739 q 625 611 522 739 q 672 500 672 563 l 672 497 l 663 -17 l 828 43 l 828 338 q 831 493 828 471 q 885 633 840 572 q 999 738 943 714 q 1074 758 1013 743 q 1297 622 1168 758 q 1365 544 1361 556 q 1388 460 1376 501 q 1393 442 1393 446 q 1281 92 1393 288 q 1094 -219 1229 6 l 1214 -94 q 1568 517 1568 276 q 1549 597 1568 560 q 1497 672 1539 615 q 1254 863 1408 793 q 1167 890 1192 890 q 1049 881 1061 890 l 897 758 q 821 683 822 683 q 682 833 774 775 q 488 892 590 892 q 443 889 465 892 q 256 776 317 818 q 88 633 167 714 q -8 424 -11 532 z "},"N":{"ha":1010,"x_min":-31,"x_max":1079,"o":"m 360 888 l 360 767 q 556 885 451 847 q 672 914 636 914 q 792 878 721 914 q 988 717 906 819 q 1079 486 1079 603 q 818 60 1079 314 q 644 -107 769 14 q 538 -194 554 -194 q 532 -192 533 -194 q 543 -169 533 -185 q 608 -86 564 -142 q 688 13 665 -17 q 757 117 729 68 q 904 440 904 375 q 792 696 904 567 q 550 828 675 828 q 415 769 474 828 q 356 633 356 710 l 356 68 l 151 7 l 151 733 q 96 844 151 808 q -31 888 60 868 l 360 888 z "},"O":{"ha":910,"x_min":50,"x_max":972,"o":"m 604 908 q 935 675 846 908 q 972 494 972 576 q 765 150 972 314 q 383 -7 568 -7 q 132 117 222 -7 q 50 393 50 226 q 174 703 50 578 q 464 882 268 799 q 604 908 525 908 m 581 138 q 726 211 676 138 q 769 374 769 274 q 689 644 769 517 q 461 790 597 790 q 304 661 358 790 q 263 443 263 563 q 374 204 263 286 q 581 138 464 138 z "},"P":{"ha":908,"x_min":-7,"x_max":974,"o":"m 583 906 q 601 907 596 907 q 913 771 804 907 q 974 610 974 693 q 835 411 974 501 q 353 285 639 285 l 347 -65 l 140 -144 l 140 786 q 99 876 140 851 q -7 907 79 888 l 583 906 m 350 800 l 350 354 q 521 331 478 331 q 689 385 614 331 q 774 533 774 444 q 669 736 774 661 q 444 803 578 803 q 350 800 436 803 z "},"Q":{"ha":1276,"x_min":4,"x_max":1686,"o":"m 681 54 q 1101 -107 789 26 q 1450 -212 1349 -212 q 1581 -182 1508 -212 q 1686 -108 1654 -151 l 1626 -182 q 1486 -275 1508 -262 q 1328 -326 1394 -326 q 947 -212 1217 -326 q 676 -94 861 -174 q 481 -49 563 -49 q 321 -86 397 -49 q 197 -131 290 -96 q 63 -194 96 -168 l 185 -117 q 339 -32 208 -97 l 461 29 l 419 29 q 44 226 136 29 q 4 413 4 313 q 79 667 4 551 q 285 831 157 788 q 456 856 336 849 q 622 876 515 860 q 732 886 682 886 q 953 831 857 886 q 1103 660 1056 771 q 1138 490 1138 579 q 949 140 1138 256 q 681 54 867 90 m 560 826 q 253 597 357 828 q 213 421 213 508 q 315 176 213 276 q 561 75 417 75 q 826 196 715 75 q 936 468 936 313 q 803 740 936 639 q 560 826 690 826 z "},"R":{"ha":851,"x_min":-7,"x_max":1647,"o":"m 1 894 q 90 814 69 886 q 101 682 101 776 q 97 550 101 632 q -7 11 74 83 q 331 15 117 11 q 232 339 232 51 q 297 849 232 604 q 342 854 319 854 q 468 790 421 854 q 511 651 511 733 q 449 491 511 550 q 285 439 386 432 q 453 246 328 368 q 635 68 514 188 q 1022 -236 826 -128 q 1492 -368 1263 -368 q 1647 -350 1572 -368 q 1614 -351 1631 -351 q 1322 -281 1482 -351 q 918 6 1107 -185 q 707 218 847 76 q 533 451 582 349 q 736 682 736 563 q 658 810 736 756 q 514 872 599 851 q 258 896 418 894 q 1 894 171 896 z "},"S":{"ha":650,"x_min":-19,"x_max":696,"o":"m 6 644 q 24 724 6 700 q 118 771 67 743 q 236 860 144 785 q 304 900 281 896 q 411 903 321 903 q 556 893 469 903 q 696 840 667 881 l 696 833 q 678 797 696 821 q 618 736 669 786 q 561 685 567 686 q 557 694 561 689 l 556 694 q 567 732 567 739 q 386 785 567 760 q 308 786 376 786 q 186 781 214 786 q 158 697 158 756 q 190 638 158 661 q 256 607 204 628 l 435 536 q 689 281 689 436 q 618 188 689 233 q 564 150 582 164 q 492 83 539 131 q 431 31 469 61 q 297 7 382 7 q -19 115 90 7 q 8 153 -18 125 q 115 254 106 254 q 121 247 121 254 q 115 237 121 244 q 110 225 110 229 q 264 149 110 189 q 382 132 328 132 q 532 160 490 132 q 536 192 536 160 q 499 315 536 276 q 385 379 471 344 l 117 489 q 21 554 33 524 q 6 644 6 592 z "},"T":{"ha":889,"x_min":14,"x_max":953,"o":"m 567 -14 q 339 -3 469 -3 q 99 -14 210 -3 q 239 104 203 13 q 264 294 264 167 q 263 378 264 322 q 261 463 261 435 q 278 682 261 589 q 194 697 249 697 q 14 619 54 697 q 63 861 63 731 q 529 811 213 860 q 681 799 611 799 q 953 854 807 799 q 739 744 882 786 q 499 704 621 710 q 442 296 442 518 q 567 -14 442 21 z "},"U":{"ha":1069,"x_min":-11,"x_max":1146,"o":"m 972 894 l 981 185 q 1022 64 972 113 q 1146 13 1072 15 q 781 21 1121 13 l 781 143 q 599 39 626 51 q 399 1 514 1 q 296 47 371 1 q 97 215 185 115 q -11 442 -11 339 q 68 654 -11 515 q 132 738 104 717 q 331 885 192 815 q 161 511 161 635 q 324 242 161 378 q 618 111 481 111 q 779 196 738 111 l 779 718 q 781 735 779 724 l 781 750 q 731 853 781 819 q 617 893 700 874 l 972 894 z "},"V":{"ha":990,"x_min":-15,"x_max":1061,"o":"m 65 825 q -15 878 56 835 l 490 878 q 417 815 433 832 q 376 732 376 774 q 418 597 376 686 q 482 467 436 561 q 561 299 494 440 q 681 503 667 478 q 753 718 753 642 q 626 879 753 839 q 843 883 626 879 l 1061 888 q 879 658 1006 872 q 672 300 833 582 l 569 121 q 494 -17 539 67 q 325 381 410 182 q 131 761 208 646 q 65 825 106 799 z "},"W":{"ha":1349,"x_min":-47,"x_max":1444,"o":"m 358 -11 q 304 133 344 3 q 171 539 211 436 q -47 881 63 814 l 313 886 q 274 778 274 850 q 438 296 274 635 l 632 597 q 582 729 601 690 q 496 839 549 799 q 415 892 472 857 l 921 892 q 847 829 864 846 q 807 746 807 788 q 849 611 807 700 q 913 481 867 575 q 992 313 925 454 q 1111 517 1097 492 q 1183 732 1183 656 q 1057 879 1183 839 q 1200 878 1121 878 q 1444 888 1389 878 q 1000 135 1160 418 q 925 -3 961 67 q 690 496 869 106 q 600 357 669 467 l 453 126 q 358 -11 413 64 z "},"X":{"ha":990,"x_min":-29,"x_max":1061,"o":"m 979 39 q 1061 7 985 36 l 556 7 q 669 96 669 61 q 589 229 669 122 q 488 357 538 293 l 481 349 l 478 351 q 367 235 375 246 q 293 104 293 150 q 419 6 293 31 q 201 4 399 7 l -15 1 q 167 140 40 11 q 374 358 224 201 l 431 418 q 153 785 213 718 q 51 860 113 831 q -29 892 25 872 l 476 892 q 363 804 363 838 q 443 671 363 775 q 544 543 493 607 l 551 551 l 568 561 q 676 676 625 621 q 739 794 739 744 q 613 893 739 869 q 829 894 757 893 l 1047 899 q 865 758 992 890 q 658 540 808 697 l 601 481 q 879 114 814 189 q 979 39 922 64 z "},"Y":{"ha":1092,"x_min":43,"x_max":1131,"o":"m 1131 892 l 743 892 q 942 743 942 861 l 942 728 q 940 711 940 718 l 940 171 q 844 122 874 133 q 740 103 794 103 q 594 149 682 103 q 361 331 468 215 q 233 585 233 469 q 268 711 233 643 l 422 1013 q 372 971 414 1003 l 264 889 q 167 800 193 835 q 43 496 43 633 q 153 251 43 390 q 351 58 239 143 q 558 -37 479 -37 q 756 24 647 -37 q 940 131 807 53 l 940 -25 q 793 -350 940 -92 q 643 -557 751 -424 q 579 -635 626 -576 q 568 -658 575 -642 q 574 -660 569 -660 q 682 -574 596 -660 l 858 -399 q 1131 46 1131 -129 l 1131 892 z "},"Z":{"ha":901,"x_min":-43,"x_max":965,"o":"m 143 11 q -3 17 67 17 q -43 32 -40 17 q 333 449 -21 90 q 657 803 551 669 l 253 810 q 239 811 249 810 l 225 811 q 47 688 118 811 l 47 917 q 819 886 468 886 q 863 888 833 886 q 906 889 892 889 q 574 490 789 721 l 219 111 q 481 96 288 103 q 743 83 696 88 l 864 83 q 965 44 965 83 q 761 -142 965 -54 l 746 -125 l 753 -114 q 776 -56 776 -76 q 740 -10 776 -21 q 143 11 426 -10 z "},"[":{"ha":501,"x_min":157,"x_max":538,"o":"m 157 926 l 538 926 l 485 847 q 396 854 463 849 l 338 860 l 338 835 q 333 571 338 747 q 329 307 329 394 q 333 49 329 221 q 338 -208 338 -122 l 338 -233 l 485 -221 l 538 -300 l 157 -300 q 183 -126 183 -212 l 179 840 q 157 926 175 863 z "},"\\":{"ha":607,"x_min":-10,"x_max":650,"o":"m -10 942 l 169 861 q 650 -300 281 553 q 499 -231 540 -246 q -10 942 339 200 z "},"]":{"ha":379,"x_min":28,"x_max":407,"o":"m 407 -300 l 28 -300 l 81 -221 q 168 -229 115 -225 l 228 -233 l 228 -208 q 232 55 228 -121 q 236 318 236 231 q 232 576 236 404 q 228 835 228 749 l 228 860 q 168 854 214 858 l 81 847 l 28 926 l 407 926 q 381 753 378 833 l 382 708 l 385 -214 q 407 -300 389 -236 z "},"^":{"ha":683,"x_min":-37,"x_max":732,"o":"m 732 392 l 663 392 l 411 785 l 146 392 l -37 392 l 354 972 l 364 972 l 732 392 z "},"_":{"ha":628,"x_min":22,"x_max":672,"o":"m 22 -125 l 672 -125 l 672 -206 l 22 -206 l 22 -125 z "},"`":{"ha":389,"x_min":186,"x_max":415,"o":"m 350 949 q 415 756 400 861 l 296 754 q 251 840 294 757 q 186 946 240 861 l 350 949 z "},"a":{"ha":1013,"x_min":13,"x_max":1085,"o":"m 503 128 q 650 197 590 128 q 714 351 704 260 q 718 419 718 390 q 393 731 718 733 q 247 611 299 729 q 208 411 208 521 q 313 192 208 269 q 503 128 399 128 m 803 -1 q 785 126 794 32 q 774 229 782 146 q 572 64 692 128 q 321 -6 443 -6 q 88 108 171 -6 q 13 364 13 210 q 126 650 13 535 q 396 815 211 736 q 525 840 454 840 q 771 729 681 840 q 799 801 782 769 q 833 797 814 797 q 1039 849 917 797 q 956 518 956 783 q 959 385 956 474 q 963 251 963 296 q 979 108 963 156 q 1085 3 1007 29 l 803 -1 z "},"b":{"ha":846,"x_min":-11,"x_max":907,"o":"m -11 893 l 572 892 q 735 853 660 892 q 826 726 826 806 q 757 600 826 650 q 621 533 721 574 l 675 522 q 829 458 768 503 q 907 318 907 401 q 815 136 907 213 q 625 42 742 75 q 353 7 501 7 l 251 7 q 183 24 192 7 q 179 60 179 32 l 175 747 q 131 856 175 828 q -11 893 101 874 m 358 526 l 467 524 q 597 551 533 522 q 672 649 672 586 q 594 765 672 724 q 450 799 532 799 l 358 799 l 358 526 m 407 460 l 358 460 l 358 125 q 374 86 358 94 q 417 81 383 81 l 539 81 q 676 121 613 81 q 750 235 750 165 q 631 413 750 351 q 407 460 538 460 z "},"c":{"ha":982,"x_min":6,"x_max":1053,"o":"m 801 875 q 697 626 768 792 q 603 772 678 706 q 450 838 529 838 q 275 707 338 838 q 226 479 226 606 q 243 372 226 417 q 299 279 258 335 q 722 81 444 81 q 1053 149 885 81 q 550 6 808 6 q 183 106 336 6 q 6 425 6 222 q 26 561 6 486 q 549 897 119 897 q 801 875 657 897 z "},"d":{"ha":907,"x_min":-193,"x_max":972,"o":"m 165 943 l 700 858 q 972 582 972 815 l 972 561 q 956 347 972 414 q 833 179 926 232 l 582 36 q 439 -1 517 -1 q 139 139 267 -1 q 15 449 15 275 q 125 703 15 625 l 267 803 q 8 851 156 847 q -193 854 -24 853 q -26 922 -193 890 q 165 943 121 950 m 300 797 l 271 774 q 203 654 226 738 q 183 514 183 586 q 210 358 183 435 q 421 154 256 226 q 586 115 510 115 q 732 164 674 115 q 761 219 743 174 q 807 467 807 336 q 751 660 807 593 q 569 749 694 726 l 300 797 z "},"e":{"ha":900,"x_min":113,"x_max":964,"o":"m 964 867 q 847 671 903 788 q 768 783 821 740 q 640 832 710 832 q 374 604 476 832 q 571 524 413 549 q 793 507 685 506 q 583 467 749 503 q 371 439 457 439 q 326 440 349 439 q 454 194 328 292 q 725 104 572 104 q 932 171 847 104 q 515 6 732 6 q 163 165 310 6 q 113 415 113 299 q 313 782 113 653 q 735 893 483 893 q 964 867 851 893 z "},"f":{"ha":825,"x_min":-28,"x_max":883,"o":"m 865 686 q 778 785 861 751 q 638 810 715 810 q 607 807 614 810 q 604 806 606 807 q 665 801 604 801 l 349 801 l 349 481 l 640 469 q 856 482 700 467 q 617 386 761 404 q 354 379 561 379 l 354 -32 q 297 -151 354 -100 l 249 -186 q 185 -233 215 -210 l -17 -389 l -28 -372 q 99 -243 74 -281 q 144 -72 144 -175 l 143 788 l -4 883 l 883 888 q 863 829 863 875 q 868 771 863 810 q 874 713 874 732 q 865 686 874 690 z "},"g":{"ha":900,"x_min":6,"x_max":964,"o":"m 765 43 q 751 -104 765 -21 q 717 -232 735 -157 q 738 -218 722 -232 q 811 -136 756 -196 l 818 -129 q 888 -53 826 -121 q 922 56 915 -12 l 964 486 l 804 486 q 564 399 713 486 l 711 406 q 753 404 726 407 q 796 403 785 403 l 776 121 q 639 106 704 106 q 299 279 426 106 q 243 372 258 335 q 226 479 226 417 q 275 707 226 606 q 450 838 338 836 q 831 625 775 842 q 957 861 878 701 q 549 897 740 897 q 26 561 119 897 q 6 425 6 486 q 150 124 6 243 q 471 13 285 13 q 765 88 617 13 l 765 43 z "},"h":{"ha":814,"x_min":14,"x_max":872,"o":"m 71 1067 q 189 1104 96 1071 q 306 1131 263 1131 q 344 1125 326 1131 l 308 931 q 289 735 289 826 q 297 635 289 681 q 635 817 489 817 q 824 686 760 817 q 872 446 872 586 q 760 15 872 213 q 429 -271 638 -199 q 596 -60 522 -185 q 689 190 676 76 q 696 307 696 254 q 663 518 696 429 q 510 644 615 644 q 364 576 433 644 q 274 438 303 517 q 249 292 249 369 q 346 3 249 143 l 278 3 q 222 3 222 3 l 146 1 l 14 1 q 93 322 71 118 q 115 657 96 350 q 125 774 118 697 q 131 840 131 844 q 129 864 131 849 q 128 888 128 879 l 128 928 q 71 1067 128 1026 z "},"i":{"ha":396,"x_min":14,"x_max":424,"o":"m 424 828 l 17 828 l 17 4 l 238 -92 l 236 667 q 235 686 235 676 q 308 786 235 747 q 424 828 329 797 m 142 1151 q 179 1126 151 1151 l 238 1075 q 289 1024 289 1029 q 261 986 289 1017 q 158 885 215 936 q 133 901 143 893 l 50 981 q 14 1015 40 990 q 47 1053 15 1018 l 118 1129 q 142 1151 139 1151 z "},"j":{"ha":442,"x_min":-11,"x_max":474,"o":"m 474 1026 q 446 994 474 1022 q 338 896 393 942 q 273 964 322 907 q 219 1035 224 1021 q 292 1114 222 1053 q 354 1163 347 1163 q 449 1064 360 1163 q 474 1026 474 1036 m 31 851 l 471 850 l 471 88 q 344 -12 428 50 q 217 -110 253 -79 q 39 -251 158 -158 q -11 -268 11 -268 l 1 -251 q 51 -207 14 -240 q 153 -106 110 -154 q 256 207 256 11 q 247 747 256 211 l 31 851 m 31 851 q 247 747 233 818 l 31 851 z "},"k":{"ha":1099,"x_min":-58,"x_max":1178,"o":"m 319 882 l 319 544 q 418 597 353 560 q 481 650 436 611 q 642 819 553 731 q 861 903 715 893 q 469 589 714 750 l 790 267 q 1026 117 940 117 q 1097 128 1050 117 q 1167 139 1143 139 q 1178 138 1174 139 q 1124 100 1176 131 q 897 17 983 19 q 892 19 896 18 q 747 88 821 26 q 631 203 726 108 l 367 465 q 333 490 342 490 q 326 464 326 490 l 326 76 l 135 6 l 118 764 q 76 839 117 817 q -58 881 51 853 l 319 882 z "},"l":{"ha":400,"x_min":-97,"x_max":1018,"o":"m 242 896 l 181 -94 l 639 -153 q 728 -158 682 -158 q 1018 -114 936 -158 l 956 -156 q 685 -257 833 -257 q 549 -250 642 -257 l -10 -208 l 49 746 q 53 779 53 765 q 11 849 53 825 q -97 894 3 853 l 242 896 z "},"m":{"ha":1494,"x_min":-8,"x_max":1568,"o":"m -8 424 q 225 -29 -4 214 q 496 -261 364 -178 q 315 13 407 -160 q 206 314 213 206 q 201 503 196 472 q 272 653 217 582 q 424 739 340 739 q 625 611 522 739 q 672 500 672 563 l 672 497 l 663 -17 l 828 43 l 828 338 q 831 493 828 471 q 885 633 840 572 q 999 738 943 714 q 1074 758 1013 743 q 1297 622 1168 758 q 1365 544 1361 556 q 1388 460 1376 501 q 1393 442 1393 446 q 1281 92 1393 288 q 1094 -219 1229 6 l 1214 -94 q 1568 517 1568 276 q 1549 597 1568 560 q 1497 672 1539 615 q 1254 863 1408 793 q 1167 890 1192 890 q 1049 881 1061 890 l 897 758 q 821 683 822 683 q 682 833 774 775 q 488 892 590 892 q 443 889 465 892 q 256 776 317 818 q 88 633 167 714 q -8 424 -11 532 z "},"n":{"ha":1010,"x_min":-31,"x_max":1079,"o":"m 360 888 l 360 767 q 556 885 451 847 q 672 914 636 914 q 792 878 721 914 q 988 717 906 819 q 1079 486 1079 603 q 818 60 1079 314 q 644 -107 769 14 q 538 -194 554 -194 q 532 -192 533 -194 q 543 -169 533 -185 q 608 -86 564 -142 q 688 13 665 -17 q 757 117 729 68 q 904 440 904 375 q 792 696 904 567 q 550 828 675 828 q 415 769 474 828 q 356 633 356 710 l 356 68 l 151 7 l 151 733 q 96 844 151 808 q -31 888 60 868 l 360 888 z "},"o":{"ha":910,"x_min":50,"x_max":972,"o":"m 604 908 q 935 675 846 908 q 972 494 972 576 q 765 150 972 314 q 383 -7 568 -7 q 132 117 222 -7 q 50 393 50 226 q 174 703 50 578 q 464 882 268 799 q 604 908 525 908 m 581 138 q 726 211 676 138 q 769 374 769 274 q 689 644 769 517 q 461 790 597 790 q 304 661 358 790 q 263 443 263 563 q 374 204 263 286 q 581 138 464 138 z "},"p":{"ha":908,"x_min":-7,"x_max":974,"o":"m 583 906 q 601 907 596 907 q 913 771 804 907 q 974 610 974 693 q 835 411 974 501 q 353 285 639 285 l 347 -65 l 140 -144 l 140 786 q 99 876 140 851 q -7 907 79 888 l 583 906 m 350 800 l 350 354 q 521 331 478 331 q 689 385 614 331 q 774 533 774 444 q 669 736 774 661 q 444 803 578 803 q 350 800 436 803 z "},"q":{"ha":1250,"x_min":4,"x_max":1686,"o":"m 681 54 q 1101 -107 789 26 q 1450 -212 1349 -212 q 1581 -182 1508 -212 q 1686 -108 1654 -151 l 1626 -182 q 1486 -275 1508 -262 q 1328 -326 1394 -326 q 947 -212 1217 -326 q 676 -94 861 -174 q 481 -49 563 -49 q 321 -86 397 -49 q 197 -131 290 -96 q 63 -194 96 -168 l 185 -117 q 339 -32 208 -97 l 461 29 l 419 29 q 44 226 136 29 q 4 413 4 313 q 79 667 4 551 q 285 831 157 788 q 456 856 336 849 q 622 876 515 860 q 732 886 682 886 q 953 831 857 886 q 1103 660 1056 771 q 1138 490 1138 579 q 949 140 1138 256 q 681 54 867 90 m 560 826 q 253 597 357 828 q 213 421 213 508 q 315 176 213 276 q 561 75 417 75 q 826 196 715 75 q 936 468 936 313 q 803 740 936 639 q 560 826 690 826 z "},"r":{"ha":883,"x_min":-7,"x_max":1647,"o":"m 1 894 q 90 814 69 886 q 101 682 101 776 q 97 550 101 632 q -7 11 74 83 q 331 15 117 11 q 232 339 232 51 q 297 849 232 604 q 342 854 319 854 q 468 790 421 854 q 511 651 511 733 q 449 491 511 550 q 285 439 386 432 q 453 246 328 368 q 635 68 514 188 q 1022 -236 826 -128 q 1492 -368 1263 -368 q 1647 -350 1572 -368 q 1614 -351 1631 -351 q 1322 -281 1482 -351 q 918 6 1107 -185 q 707 218 847 76 q 533 451 582 349 q 736 682 736 563 q 658 810 736 756 q 514 872 599 851 q 258 896 418 894 q 1 894 171 896 z "},"s":{"ha":650,"x_min":-19,"x_max":696,"o":"m 6 644 q 24 724 6 700 q 118 771 67 743 q 236 860 144 785 q 304 900 281 896 q 411 903 321 903 q 556 893 469 903 q 696 840 667 881 l 696 833 q 678 797 696 821 q 618 736 669 786 q 561 685 567 686 q 557 694 561 689 l 556 694 q 567 732 567 739 q 386 785 567 760 q 308 786 376 786 q 186 781 214 786 q 158 697 158 756 q 190 638 158 661 q 256 607 204 628 l 435 536 q 689 281 689 436 q 618 188 689 233 q 564 150 582 164 q 492 83 539 131 q 431 31 469 61 q 297 7 382 7 q -19 115 90 7 q 8 153 -18 125 q 115 254 106 254 q 121 247 121 254 q 115 237 121 244 q 110 225 110 229 q 264 149 110 189 q 382 132 328 132 q 532 160 490 132 q 536 192 536 160 q 499 315 536 276 q 385 379 471 344 l 117 489 q 21 554 33 524 q 6 644 6 592 z "},"t":{"ha":889,"x_min":14,"x_max":953,"o":"m 567 -14 q 339 -3 469 -3 q 99 -14 210 -3 q 239 104 203 13 q 264 294 264 167 q 263 378 264 322 q 261 463 261 435 q 278 682 261 589 q 194 697 249 697 q 14 619 54 697 q 63 861 63 731 q 529 811 213 860 q 681 799 611 799 q 953 854 807 799 q 739 744 882 786 q 499 704 621 710 q 442 296 442 518 q 567 -14 442 21 z "},"u":{"ha":1069,"x_min":-11,"x_max":1146,"o":"m 972 894 l 981 185 q 1022 64 972 113 q 1146 13 1072 15 q 781 21 1121 13 l 781 143 q 599 39 626 51 q 399 1 514 1 q 296 47 371 1 q 97 215 185 115 q -11 442 -11 339 q 68 654 -11 515 q 132 738 104 717 q 331 885 192 815 q 161 511 161 635 q 324 242 161 378 q 618 111 481 111 q 779 196 738 111 l 779 718 q 781 735 779 724 l 781 750 q 731 853 781 819 q 617 893 700 874 l 972 894 z "},"v":{"ha":990,"x_min":-15,"x_max":1061,"o":"m 65 825 q -15 878 56 835 l 490 878 q 417 815 433 832 q 376 732 376 774 q 418 597 376 686 q 482 467 436 561 q 561 299 494 440 q 681 503 667 478 q 753 718 753 642 q 626 879 753 839 q 843 883 626 879 l 1061 888 q 879 658 1006 872 q 672 300 833 582 l 569 121 q 494 -17 539 67 q 325 381 410 182 q 131 761 208 646 q 65 825 106 799 z "},"w":{"ha":1349,"x_min":-47,"x_max":1444,"o":"m 358 -11 q 304 133 344 3 q 171 539 211 436 q -47 881 63 814 l 313 886 q 274 778 274 850 q 438 296 274 635 l 632 597 q 582 729 601 690 q 496 839 549 799 q 415 892 472 857 l 921 892 q 847 829 864 846 q 807 746 807 788 q 849 611 807 700 q 913 481 867 575 q 992 313 925 454 q 1111 517 1097 492 q 1183 732 1183 656 q 1057 879 1183 839 q 1200 878 1121 878 q 1444 888 1389 878 q 1000 135 1160 418 q 925 -3 961 67 q 690 496 869 106 q 600 357 669 467 l 453 126 q 358 -11 413 64 z "},"x":{"ha":990,"x_min":-29,"x_max":1061,"o":"m 979 39 q 1061 7 985 36 l 556 7 q 669 96 669 61 q 589 229 669 122 q 488 357 538 293 l 481 349 l 478 351 q 367 235 375 246 q 293 104 293 150 q 419 6 293 31 q 201 4 399 7 l -15 1 q 167 140 40 11 q 374 358 224 201 l 431 418 q 153 785 213 718 q 51 860 113 831 q -29 892 25 872 l 476 892 q 363 804 363 838 q 443 671 363 775 q 544 543 493 607 l 551 551 l 568 561 q 676 676 625 621 q 739 794 739 744 q 613 893 739 869 q 829 894 757 893 l 1047 899 q 865 758 992 890 q 658 540 808 697 l 601 481 q 879 114 814 189 q 979 39 922 64 z "},"y":{"ha":1092,"x_min":43,"x_max":1131,"o":"m 1131 892 l 743 892 q 942 743 942 861 l 942 728 q 940 711 940 718 l 940 171 q 844 122 874 133 q 740 103 794 103 q 594 149 682 103 q 361 331 468 215 q 233 585 233 469 q 268 711 233 643 l 422 1013 q 372 971 414 1003 l 264 889 q 167 800 193 835 q 43 496 43 633 q 153 251 43 390 q 351 58 239 143 q 558 -37 479 -37 q 756 24 647 -37 q 940 131 807 53 l 940 -25 q 793 -350 940 -92 q 643 -557 751 -424 q 579 -635 626 -576 q 568 -658 575 -642 q 574 -660 569 -660 q 682 -574 596 -660 l 858 -399 q 1131 46 1131 -129 l 1131 892 z "},"z":{"ha":901,"x_min":-43,"x_max":965,"o":"m 143 11 q -3 17 67 17 q -43 32 -40 17 q 333 449 -21 90 q 657 803 551 669 l 253 810 q 239 811 249 810 l 225 811 q 47 688 118 811 l 47 917 q 819 886 468 886 q 863 888 833 886 q 906 889 892 889 q 574 490 789 721 l 219 111 q 481 96 288 103 q 743 83 696 88 l 864 83 q 965 44 965 83 q 761 -142 965 -54 l 746 -125 l 753 -114 q 776 -56 776 -76 q 740 -10 776 -21 q 143 11 426 -10 z "},"{":{"ha":483,"x_min":18,"x_max":518,"o":"m 18 275 l 42 335 q 65 333 58 333 q 163 418 156 333 q 164 511 164 435 l 164 656 q 168 763 164 738 q 235 880 181 839 q 368 921 289 921 l 454 921 q 518 926 497 921 l 483 872 q 322 750 351 878 q 311 549 310 693 q 283 351 314 393 q 217 310 263 322 q 307 210 296 300 q 311 60 311 171 q 339 -178 310 -128 q 397 -231 357 -210 q 474 -251 436 -251 q 517 -249 489 -251 l 481 -300 q 436 -296 456 -296 q 397 -299 428 -299 l 376 -299 q 163 -56 161 -299 l 164 111 q 151 242 165 214 q 72 279 133 279 q 18 275 58 279 z "},"|":{"ha":374,"x_min":294,"x_max":400,"o":"m 294 926 l 400 926 l 400 -232 l 294 -232 l 294 926 z "},"}":{"ha":476,"x_min":10,"x_max":510,"o":"m 485 275 q 446 279 456 279 q 365 201 371 279 q 364 96 364 182 q 364 79 364 92 q 365 35 365 40 l 365 -65 q 244 -281 365 -231 q 151 -299 200 -299 l 129 -299 q 90 -296 99 -296 q 46 -300 71 -296 l 11 -249 q 53 -251 39 -251 q 131 -231 92 -251 q 189 -178 171 -210 q 217 63 217 -129 l 217 169 q 311 310 217 297 q 233 372 254 325 q 217 574 217 410 q 211 717 217 678 q 44 872 188 879 l 10 926 q 74 921 31 921 l 161 921 q 297 877 242 921 q 361 756 351 833 q 364 642 364 733 l 364 500 q 381 375 364 399 q 468 333 410 333 q 510 335 485 333 l 485 275 z "},"~":{"ha":1913,"x_min":19,"x_max":1994,"o":"m 215 564 l 215 518 q 432 307 247 389 q 935 197 678 197 l 1083 197 q 1803 518 1719 257 l 1803 564 q 1586 775 1772 692 q 1083 883 1343 883 l 935 883 q 215 564 299 825 m 896 903 q 1033 904 940 904 q 1310 888 1197 904 l 1413 872 l 1615 828 q 1994 568 1965 751 l 1994 518 q 1960 444 1981 467 q 1758 307 1876 354 q 1122 183 1475 194 q 989 181 1035 181 q 704 199 838 181 l 601 213 l 399 257 q 169 340 268 286 q 19 518 36 414 l 19 568 q 54 642 33 618 q 256 779 135 732 q 896 903 542 892 m 425 621 l 425 485 l 536 485 l 536 621 l 575 621 l 575 493 q 533 453 575 453 l 428 453 q 386 493 386 453 l 386 621 l 425 621 m 726 590 l 726 453 l 688 453 l 688 590 l 610 590 l 610 621 l 804 621 l 804 590 l 726 590 m 853 581 q 894 621 853 621 l 1018 621 q 1058 581 1058 621 l 1058 493 q 1018 453 1058 453 l 894 453 q 853 493 853 453 l 853 581 m 892 485 l 1019 485 l 1019 590 l 892 590 l 892 485 m 1257 592 l 1169 592 l 1169 547 l 1257 547 q 1275 561 1275 547 l 1275 579 q 1257 592 1275 592 m 1131 453 l 1131 621 l 1275 621 q 1313 588 1313 621 l 1313 551 q 1275 518 1313 518 l 1169 518 l 1169 453 l 1131 453 m 1368 453 l 1368 621 l 1407 621 l 1407 453 l 1368 453 m 1521 519 l 1594 519 l 1558 588 l 1521 519 m 1446 453 l 1542 621 l 1579 621 l 1675 453 l 1631 453 l 1611 490 l 1504 490 l 1485 453 l 1446 453 z "}}}
